<svg class="w-[30px] h-[30px] lg:w-[34px] lg:h-[34px]  bg-white rounded-full " version="1.0" xmlns="http://www.w3.org/2000/svg" viewBox="0 0 512.000000 512.000000" preserveAspectRatio="xMidYMid meet"><g transform="translate(0.000000,512.000000) scale(0.100000,-0.100000)" fill="#FF0000" stroke="none"><path d="M2351 5109 c-616 -55 -1153 -303 -1587 -734 -77 -77 -167 -174 -200 -215 -246 -312 -420 -677 -503 -1056 -74 -335 -74 -753 0 -1088 83 -379 258 -746 503 -1056 76 -96 299 -319 395 -394 309 -245 658 -413 1036 -500 346 -79 765 -81 1109 -5 379 84 746 259 1056 503 109 86 344 326 426 436 284 380 448 773 510 1230 23 169 23 491 0 660 -62 457 -241 882 -524 1249 -85 110 -322 348 -432 433 -373 288 -791 463 -1245 523 -150 19 -409 26 -544 14z m182 -1523 c252 -75 437 -226 562 -458 56 -104 58 -122 5 -41 -93 141 -263 261 -425 299 -100 23 -273 20 -383 -6 -239 -56 -448 -223 -557 -445 -70 -143 -80 -192 -79 -395 0 -164 2 -180 28 -260 90 -274 287 -471 554 -554 93 -29 288 -51 366 -41 144 18 270 79 369 177 80 80 69 49 -22 -64 -99 -122 -224 -208 -381 -260 -93 -32 -99 -32 -270 -32 -193 0 -275 14 -418 72 -324 133 -567 433 -627 777 -19 112 -19 298 0 410 74 423 410 758 842 840 121 23 324 14 436 -19z m877 -779 c51 -82 98 -151 104 -153 6 -2 89 18 185 46 96 27 176 48 177 47 2 -2 -50 -72 -115 -155 l-119 -153 103 -162 c57 -89 101 -164 100 -166 -2 -2 -79 27 -171 63 -91 36 -172 66 -178 66 -6 -1 -58 -62 -116 -137 -58 -75 -111 -143 -118 -152 -11 -13 -12 20 -6 185 l6 201 -172 68 c-94 37 -169 69 -166 72 3 3 81 27 173 53 193 54 180 41 182 181 2 163 13 272 26 257 6 -7 54 -80 105 -161z"></path></g></svg>