<svg class="w-[30px] h-[30px] lg:w-[34px] lg:h-[34px]" id="Group_10091" data-name="Group 10091" xmlns="http://www.w3.org/2000/svg" viewBox="0 0 33.767 33.767"><circle id="Ellipse_529" data-name="Ellipse 529" cx="16.883" cy="16.883" r="16.883" fill="#f0f0f0"></circle><path id="Path_7187" data-name="Path 7187" d="M11.727,100.142a16.822,16.822,0,0,0-2.908,5.875H17.6Z" transform="translate(-8.237 -93.537)" fill="#0052b4"></path><path id="Path_7188" data-name="Path 7188" d="M378.788,106.018a16.821,16.821,0,0,0-2.908-5.875l-5.874,5.875Z" transform="translate(-345.603 -93.538)" fill="#0052b4"></path><path id="Path_7189" data-name="Path 7189" d="M8.819,322.784a16.825,16.825,0,0,0,2.908,5.874l5.874-5.874Z" transform="translate(-8.237 -301.496)" fill="#0052b4"></path><path id="Path_7190" data-name="Path 7190" d="M328.657,11.728a16.822,16.822,0,0,0-5.875-2.909V17.6Z" transform="translate(-301.494 -8.237)" fill="#0052b4"></path><path id="Path_7191" data-name="Path 7191" d="M100.142,375.879a16.821,16.821,0,0,0,5.875,2.908v-8.783Z" transform="translate(-93.537 -345.603)" fill="#0052b4"></path><path id="Path_7192" data-name="Path 7192" d="M106.016,8.819a16.823,16.823,0,0,0-5.874,2.908l5.874,5.875Z" transform="translate(-93.537 -8.237)" fill="#0052b4"></path><path id="Path_7193" data-name="Path 7193" d="M322.783,378.788a16.82,16.82,0,0,0,5.875-2.908l-5.875-5.874Z" transform="translate(-301.495 -345.603)" fill="#0052b4"></path><path id="Path_7194" data-name="Path 7194" d="M370.005,322.784l5.874,5.874a16.821,16.821,0,0,0,2.908-5.874Z" transform="translate(-345.603 -301.496)" fill="#0052b4"></path><path id="Path_7195" data-name="Path 7195" d="M33.624,14.681H19.085V.143a17.038,17.038,0,0,0-4.4,0V14.681H.143a17.038,17.038,0,0,0,0,4.4H14.681V33.624a17.038,17.038,0,0,0,4.4,0V19.086H33.624a17.038,17.038,0,0,0,0-4.4Z" transform="translate(0 0)" fill="#e94442"></path><path id="Path_7196" data-name="Path 7196" d="M322.783,322.783h0l7.534,7.534q.52-.519.992-1.084l-6.45-6.45Z" transform="translate(-301.495 -301.495)" fill="#e94442"></path><path id="Path_7197" data-name="Path 7197" d="M82.514,322.784h0l-7.534,7.534q.52.52,1.084.993l6.45-6.45Z" transform="translate(-70.035 -301.496)" fill="#e94442"></path><path id="Path_7198" data-name="Path 7198" d="M68.459,82.514h0L60.925,74.98q-.52.52-.992,1.084l6.45,6.45h2.076Z" transform="translate(-55.98 -70.035)" fill="#e94442"></path><path id="Path_7199" data-name="Path 7199" d="M322.783,68.46h0l7.534-7.534q-.519-.52-1.084-.992l-6.45,6.45Z" transform="translate(-301.495 -55.981)" fill="#e94442"></path></svg>
